<?xml version="1.0" encoding="UTF-8" standalone="no"?>
<!-- Created with Inkscape (http://www.inkscape.org/) -->

<svg width="238.24489mm" height="115.06032mm" viewBox="0 0 238.24489 115.06032" version="1.1" id="svg5"
    xml:space="preserve" xmlns="http://www.w3.org/2000/svg" xmlns:svg="http://www.w3.org/2000/svg">
    <defs id="defs2" />
    <g id="layer1" transform="translate(-2.1495778,-48.365501)">
        <g data-paper-data="{&quot;isGlobalGroup&quot;:true,&quot;bounds&quot;:{&quot;x&quot;:71.2131146976657,&quot;y&quot;:143.5396688078387,&quot;width&quot;:407.57377060466865,&quot;height&quot;:182.92066238432264}}"
            id="g52" transform="matrix(0.54935066,0,0,0.54935066,-29.561918,-23.167537)"
            style="font-family:none;mix-blend-mode:normal;fill:#488eff;fill-rule:nonzero;stroke:none;stroke-width:1;stroke-linecap:butt;stroke-linejoin:miter;stroke-miterlimit:10;stroke-dasharray:none;stroke-dashoffset:0">
            <g data-paper-data="{&quot;isSecondaryText&quot;:true}" id="g42">
                <path
                    d="m 96.5,321.7 v -5 c 3,1.1 6.4,1.7 10.2,1.7 4.6,0 6.9,-1.5 6.9,-4.6 0,-2.2 -1.4,-3.4 -4.2,-3.4 h -4.7 c -6.2,0 -9.2,-2.8 -9.2,-8.4 0,-6.2 4.4,-9.3 13.1,-9.3 3.4,0 6.6,0.5 9.6,1.5 v 5 c -3,-1.1 -6.2,-1.7 -9.6,-1.7 -5,0 -7.6,1.5 -7.6,4.4 0,2.2 1.2,3.4 3.7,3.4 h 4.7 c 6.5,0 9.8,2.8 9.8,8.4 0,6.3 -4.2,9.5 -12.5,9.5 -3.8,0 -7.2,-0.5 -10.2,-1.5 z"
                    data-paper-data="{&quot;glyphName&quot;:&quot;S&quot;,&quot;glyphIndex&quot;:0,&quot;firstGlyphOfWord&quot;:true,&quot;word&quot;:1}"
                    id="path32" />
                <path
                    d="m 165.4,323 h -5.7 l 12.8,-30.1 h 6 l 13,30.1 h -6 l -3.4,-8.2 h -10 L 174,310 h 6.1 l -4.7,-11.3 z"
                    data-paper-data="{&quot;glyphName&quot;:&quot;A&quot;,&quot;glyphIndex&quot;:1,&quot;word&quot;:1}"
                    id="path34" />
                <path
                    d="m 235.2,322.9 v -30 h 13.7 c 6.1,0 9.2,2.7 9.2,8.1 0,3.6 -2.4,6.6 -7.2,9 l 9.5,13 h -7 l -9.1,-13.1 v -2.5 c 5.3,-0.9 8,-3 8,-6.2 0,-2.2 -1.2,-3.3 -3.7,-3.3 H 241 V 323 Z"
                    data-paper-data="{&quot;glyphName&quot;:&quot;R&quot;,&quot;glyphIndex&quot;:2,&quot;word&quot;:1}"
                    id="path36" />
                <path d="M 298,292.9 V 323 h -5.6 v -30.1 z"
                    data-paper-data="{&quot;glyphName&quot;:&quot;I&quot;,&quot;glyphIndex&quot;:3,&quot;word&quot;:1}"
                    id="path38" />
                <path d="m 352.8,292.9 v 4.8 h -8.6 v 25.2 h -5.6 V 297.7 H 330 v -4.8 z"
                    data-paper-data="{&quot;glyphName&quot;:&quot;T&quot;,&quot;glyphIndex&quot;:4,&quot;lastGlyphOfWord&quot;:true,&quot;word&quot;:1}"
                    id="path40" />
            </g>
            <g data-paper-data="{&quot;isPrimaryText&quot;:true}" id="g50">
                <path
                    d="m 118.8,259.3 c -5.7,0 -10.3,-0.9 -13.8,-2.6 -3.6,-1.8 -6.6,-4.2 -9.1,-7.2 -2.3,-2.9 -4.2,-6.6 -5.3,-10.5 -0.5,-2.1 -0.9,-4.3 -0.9,-6.5 0,-2 0.2,-3.9 0.6,-6 0.5,-2.7 1.5,-5.2 2.8,-7.4 1.3,-2.2 2.9,-4.3 4.9,-6.2 1.9,-1.8 4,-3.3 6.4,-4.5 2.4,-1.2 5,-2.1 7.6,-2.6 1.5,-0.2 3.3,-0.4 4.8,-0.4 1.8,0 3.9,0.2 5.6,0.6 3.3,0.8 6.5,2.1 9.1,3.8 l -0.2,-0.1 c 1.9,1.4 3.9,2.1 6.3,1.9 2.3,-0.2 4.3,-1.2 6,-2.9 l -0.2,0.2 c 1.2,-1.1 1.9,-2.2 2.3,-3.6 0.5,-1.3 0.5,-2.6 0.5,-3.9 -0.1,-1.3 -0.5,-2.6 -1.1,-3.7 -0.7,-1.2 -1.6,-2.3 -2.9,-3.1 v 0.1 c -3.4,-2.2 -7,-3.9 -10.8,-5.3 -3.9,-1.3 -8,-2.2 -12.1,-2.4 -0.7,-0.1 -1.6,-0.1 -2.5,-0.1 -3.3,0 -6.7,0.5 -10,1.2 -3.7,1 -8.1,2.6 -11.4,4.3 -3.4,1.9 -6.7,4.3 -9.7,7.1 -3.1,2.9 -5.7,6 -7.7,9.2 -2,3.2 -3.7,6.9 -5,11.1 -1.2,4 -1.9,8.1 -2,12.2 -0.1,4.3 0.4,8.4 1.5,12.3 1,3.9 2.6,7.7 4.6,11.1 2,3.4 4.4,6.6 7.1,9.3 2.7,2.7 5.8,5.2 9.2,7.3 3.4,2.1 7,3.6 11,4.7 3.9,1.1 8,1.6 12.2,1.6 4.6,0 9.1,-0.7 13.5,-2 4.3,-1.3 8.2,-3.2 11.8,-5.6 v 0.1 c 1.2,-0.8 2.2,-1.9 2.9,-3.1 0.6,-1.2 1,-2.4 1.1,-3.7 0.1,-1.2 -0.1,-2.6 -0.5,-3.9 -0.5,-1.4 -1.2,-2.6 -2.1,-3.5 -1.6,-1.6 -3.6,-2.5 -5.8,-2.7 -2.1,-0.2 -4.2,0.3 -6,1.5 l 0.1,-0.1 c -2.3,1.4 -4.6,2.6 -7,3.3 -1.8,0.6 -3.7,0.9 -5.7,1.1 z"
                    data-paper-data="{&quot;glyphName&quot;:&quot;c&quot;,&quot;glyphIndex&quot;:0,&quot;firstGlyphOfWord&quot;:true,&quot;word&quot;:1}"
                    fill="#000000" id="path44" />
                <path
                    d="m 284.2,190.8 c -5.8,-2.8 -14.7,-0.9 -14.2,6.7 V 239 c 0,2.7 -0.5,5.3 -1.5,7.7 -1,2.5 -2.5,4.6 -4.3,6.3 -1.9,1.8 -3.9,3.3 -6.4,4.3 -2.4,1 -5,1.5 -7.9,1.5 -2.7,0 -5.3,-0.5 -7.6,-1.5 -2.3,-1 -4.4,-2.5 -6.2,-4.3 -1.8,-1.8 -3.2,-3.9 -4.2,-6.3 -1,-2.3 -1.5,-4.9 -1.5,-7.5 v -12.9 c 0,-5.3 -1,-10.2 -3,-14.8 -1.9,-4.5 -4.7,-8.5 -8.3,-12 -3.5,-3.4 -7.6,-6.1 -12.2,-8.1 -4.7,-2 -9.6,-3 -14.9,-3 -5.7,0 -10.5,1.4 -14.7,4.1 -1.8,1.1 -3.5,2.6 -5,3.9 v -43.7 c 0,-2.6 -0.9,-4.7 -2.6,-6.5 -1.8,-1.8 -3.9,-2.6 -6.4,-2.6 -1.2,0 -2.4,0.2 -3.6,0.7 -1.2,0.5 -2.2,1.1 -3,1.9 -0.9,0.9 -1.5,1.9 -1.9,3 -0.5,1.2 -0.7,2.3 -0.7,3.5 v 114.6 c 0,1.1 0.2,2.3 0.7,3.5 0.5,1.2 1.1,2.2 1.9,3 0.9,0.9 1.9,1.5 3,1.9 1.2,0.5 2.3,0.7 3.6,0.7 2.6,0 4.6,-0.9 6.4,-2.6 1.8,-1.8 2.6,-3.9 2.6,-6.4 v -40.8 c 0,-2.7 0.5,-5.3 1.5,-7.7 1,-2.3 2.5,-4.5 4.3,-6.3 1.8,-1.8 3.9,-3.3 6.2,-4.3 2.3,-1 4.9,-1.5 7.6,-1.5 2.7,0 5.3,0.5 7.6,1.6 2.5,1.2 4.6,2.6 6.3,4.3 1.8,1.8 3.3,3.9 4.3,6.3 1,2.4 1.5,4.9 1.6,7.5 v 12.9 c 0,5 0.9,9.9 2.4,14.5 1.6,4.6 4,8.7 7.2,12.2 3.3,3.6 7.2,6.4 11.9,8.4 4.8,2 10.3,3 16.4,3 5.7,0 10.5,-1.4 14.7,-4.1 1.9,-1.2 3.6,-2.6 5.1,-4.1 0.3,1.8 1.1,3.3 2.5,4.6 1.8,1.8 3.9,2.6 6.4,2.6 2.6,0 4.7,-0.9 6.5,-2.6 1.8,-1.8 2.6,-3.9 2.6,-6.4 V 198 c 0,-2.6 -0.2,-5.1 -3.5,-7.2 z"
                    data-paper-data="{&quot;glyphName&quot;:&quot;special;h_u&quot;,&quot;glyphIndex&quot;:1,&quot;word&quot;:1}"
                    fill="#000000" id="path46" />
                <path
                    d="m 478.8,265.2 -0.1,-67.7 c 0,-1.3 -0.2,-2.6 -0.9,-3.8 -0.5,-1 -1.2,-2 -2.1,-2.8 -0.9,-0.7 -1.8,-1.3 -2.9,-1.8 -1.2,-0.5 -2.3,-0.7 -3.5,-0.7 -2.6,0 -4.7,0.9 -6.5,2.6 -1.8,1.8 -2.6,3.9 -2.6,6.5 v 0.2 c -2.1,-2.1 -4.6,-3.9 -7.4,-5.5 -2.7,-1.5 -5.8,-2.6 -9.2,-3.5 -3.3,-0.9 -6.8,-1.2 -10.6,-1.2 -4.2,0 -8.2,0.5 -12.1,1.6 -3.9,1.1 -7.5,2.6 -10.9,4.6 -3.4,2 -6.6,4.4 -9.3,7.1 -2.7,2.7 -5.1,5.8 -7.1,9.2 -2,3.4 -3.6,7 -4.6,10.9 -1.1,3.9 -1.6,7.9 -1.6,12.1 0,4.2 0.5,8.2 1.6,12.1 1,3.7 2.6,7.4 4.6,11 2.1,3.6 4.4,6.7 7.1,9.4 2.7,2.7 5.8,5.2 9.2,7.3 3.4,2.1 7,3.7 10.8,4.8 3.8,1.2 7.8,1.7 12.2,1.7 4.2,0 8,-0.5 11.5,-1.5 3.5,-1 6.6,-2.3 9.3,-4 2.2,-1.4 4.3,-3.1 6.2,-5.1 -0.2,3 -0.8,5.8 -1.6,8.6 -1.1,3.4 -2.6,6.7 -4.4,9.8 -1.9,3.1 -4,5.9 -6.5,8.3 -2.6,2.5 -5.4,4.6 -8.4,6.3 -2.9,1.6 -6.2,3 -9.8,4 -3.5,0.9 -7.1,1.5 -10.9,1.5 -5.8,0 -11.3,-1.1 -16.3,-3.3 -5,-2.2 -9.5,-5.2 -13.3,-9 -3.8,-3.8 -6.8,-8.3 -9,-13.3 -2.2,-5 -3.3,-10.5 -3.3,-16.3 V 225 c 0,-5.3 -1,-10.2 -3,-14.8 -2,-4.6 -4.6,-8.6 -8.1,-12 -3.4,-3.4 -7.4,-6.1 -12,-8.1 -4.6,-1.9 -9.5,-3.1 -14.8,-3.2 -3.2,0 -6,0.3 -8.5,0.9 -2.6,0.6 -5,1.5 -7,2.8 -2.1,1.2 -3.9,2.8 -5.7,4.6 -0.5,-1.4 -1.2,-2.6 -2.3,-3.8 -1.9,-1.9 -4,-2.7 -6.6,-2.7 -2.6,0 -4.7,0.9 -6.5,2.8 -1.7,1.9 -2.6,4 -2.6,6.5 v 69.1 c 0,1.2 0.2,2.4 0.7,3.6 0.5,1.2 1.1,2.2 1.9,3 0.8,0.8 1.7,1.4 2.8,1.9 1.2,0.6 2.5,0.9 3.7,0.9 1.2,0 2.5,-0.2 3.7,-0.9 1.1,-0.5 2,-1.2 2.8,-1.9 0.8,-0.8 1.4,-1.7 1.9,-2.8 0.6,-1.2 0.9,-2.5 0.9,-3.8 v -41.9 c 0,-2.8 0.5,-5.4 1.6,-7.8 1.1,-2.4 2.6,-4.6 4.4,-6.4 1.9,-1.9 4.1,-3.3 6.5,-4.4 2.4,-1.1 5.1,-1.6 7.9,-1.6 2.7,0 5.2,0.5 7.5,1.6 2.5,1.2 4.6,2.6 6.3,4.4 1.8,1.9 3.3,4.1 4.3,6.5 1,2.4 1.5,5 1.5,7.8 v 40.3 c 0,5.6 0.7,10.9 2.2,16.1 1.4,5.2 3.5,10 6.2,14.5 2.6,4.4 5.8,8.4 9.4,12.2 3.7,3.7 7.7,7 12.2,9.5 4.5,2.6 9.3,4.6 14.5,6.1 5.2,1.5 10.5,2.2 16.1,2.2 5.7,0 11,-0.7 16.1,-2.2 5,-1.5 9.8,-3.5 14.3,-6.1 4.5,-2.6 8.6,-5.8 12.2,-9.4 3.6,-3.6 6.8,-7.7 9.4,-12.2 2.6,-4.5 4.6,-9.3 6.1,-14.5 1.5,-5.2 2.2,-10.5 2.2,-16.1 z M 422.6,259 c -3.3,-1.4 -6.2,-3.3 -8.7,-5.8 -2.5,-2.5 -4.5,-5.4 -5.9,-8.7 -1.4,-3.3 -2.1,-6.8 -2.1,-10.5 0,-3.8 0.7,-7.3 2.1,-10.5 1.4,-3.3 3.3,-6.2 5.8,-8.7 2.5,-2.5 5.4,-4.4 8.7,-5.8 3.3,-1.4 6.8,-2.1 10.5,-2.1 3.8,0 7.3,0.7 10.5,2.1 3.3,1.4 6.2,3.4 8.7,5.9 2.5,2.5 4.4,5.4 5.8,8.7 1.4,3.3 2.1,6.7 2.1,10.5 0,3.7 -0.7,7.3 -2.1,10.5 -1.4,3.3 -3.4,6.2 -5.9,8.7 -2.5,2.5 -5.4,4.5 -8.7,5.9 -2.3,1 -4.7,1.6 -7.2,1.9 -6.3,-0.2 -10.9,-0.9 -13.7,-2.1 z"
                    data-paper-data="{&quot;glyphName&quot;:&quot;special;n_g&quot;,&quot;glyphIndex&quot;:2,&quot;lastGlyphOfWord&quot;:true,&quot;word&quot;:1}"
                    fill="#000000" id="path48" />
            </g>
        </g>
    </g>
</svg>