<?xml version="1.0" encoding="UTF-8" standalone="no"?>
<svg
   width="960"
   height="480"
   preserveAspectRatio="xMidYMid"
   version="1.1"
   id="svg1"
   sodipodi:docname="flask.svg"
   inkscape:version="1.3 (0e150ed6c4, 2023-07-21)"
   xmlns:inkscape="http://www.inkscape.org/namespaces/inkscape"
   xmlns:sodipodi="http://sodipodi.sourceforge.net/DTD/sodipodi-0.dtd"
   xmlns="http://www.w3.org/2000/svg"
   xmlns:svg="http://www.w3.org/2000/svg">
  <defs
     id="defs1" />
  <sodipodi:namedview
     id="namedview1"
     pagecolor="#ffffff"
     bordercolor="#000000"
     borderopacity="0.25"
     inkscape:showpageshadow="2"
     inkscape:pageopacity="0.0"
     inkscape:pagecheckerboard="0"
     inkscape:deskcolor="#d1d1d1"
     showguides="false"
     inkscape:zoom="0.68541667"
     inkscape:cx="307.84194"
     inkscape:cy="155.37994"
     inkscape:window-width="1920"
     inkscape:window-height="1009"
     inkscape:window-x="-8"
     inkscape:window-y="339"
     inkscape:window-maximized="1"
     inkscape:current-layer="svg1" />
  <path
     d="M 160.61606,359.85719 C 146.13504,348.46762 130.70216,337.56617 120.15054,322.19025 97.940867,295.08308 80.856509,263.6153 69.157793,230.70758 c -7.077807,-21.45307 -9.485887,-44.44373 -18.597545,-65.067 -9.518428,-14.96915 1.643353,-31.34572 18.044336,-36.10494 7.297462,-1.40742 20.143273,-8.29812 4.637183,-3.36806 -13.830195,10.19367 -15.23762,-9.2581 -0.99252,-10.57603 9.729949,-1.30167 13.309528,-9.24995 9.974012,-16.40912 C 71.777394,92.36496 107.54064,84.896656 89.545126,74.727395 70.809281,54.510904 115.75741,50.614044 104.67699,73.588438 c -2.65215,17.653832 31.41894,-3.254163 23.59268,17.149442 8.03779,9.79503 30.10101,2.23724 29.53153,15.96981 11.715,0.81354 15.72575,10.57602 26.70042,11.40583 11.38956,5.14159 32.03723,9.19302 35.90156,22.02256 -11.38958,8.94895 -37.44729,-18.46738 -38.70828,6.28054 3.41687,36.57679 2.54638,74.25187 15.921,109.07141 6.32935,21.08699 21.67272,37.68323 35.52732,54.10048 13.26071,16.0837 31.21556,27.41632 49.52837,36.93475 16.0593,7.56593 33.35518,12.58548 50.86258,15.74201 7.09407,-5.42631 19.6226,-25.61026 30.6949,-17.10062 0.53693,9.57537 -21.96561,19.99683 -1.05761,18.93923 12.20311,-3.70975 20.80224,9.49401 30.91455,-2.41622 9.31504,11.03975 38.72454,-7.04526 32.10232,15.51422 -8.96522,5.69479 -21.9656,2.27792 -31.02031,10.25063 -14.80644,-7.32187 -26.58652,6.60595 -42.97936,4.84056 -18.19891,3.25416 -36.72324,4.5721 -55.17434,4.5965 -30.28,-2.39181 -61.19455,-3.4006 -89.9939,-13.93595 -16.23013,-4.71853 -32.05351,-13.96036 -46.32301,-23.20218 z m 25.56958,11.08857 c 15.83965,6.83374 31.33761,14.07426 48.69856,16.24641 27.54649,3.82363 55.99602,9.72995 83.632,4.35244 -12.51225,-5.64597 -25.44756,2.19656 -37.91101,-4.03517 -14.94474,3.2135 -30.91454,-0.81354 -46.19285,-2.81485 -17.27959,-7.69609 -35.93409,-12.98411 -52.11542,-22.98252 -20.23276,-7.38695 10.454,9.47775 15.921,10.84449 12.64241,7.17543 -13.8302,-3.67719 -17.65384,-6.67103 -10.59229,-5.93885 -11.93465,-4.70226 -1.0576,1.32607 2.19656,1.2854 4.36058,2.62774 6.65476,3.72603 z m -30.14982,-21.31478 c 15.35966,5.6948 -0.065,-10.79567 -7.09407,-9.76248 -3.11587,-5.41005 -11.91024,-8.82692 -5.71106,-11.71499 -11.14551,3.87245 -11.69059,-14.64374 -16.92165,-12.06482 -11.79635,-3.72601 -4.58837,-16.92165 -18.65449,-25.04078 -1.2854,-8.54218 -13.968501,-15.9454 -18.003663,-28.83189 -1.78979,-6.50832 -14.334591,-25.54518 -6.63036,-7.91574 6.557141,16.97046 18.101283,31.50842 27.709203,46.022 7.45203,13.83018 16.27082,28.27868 29.85695,36.89408 4.58024,4.39311 8.99777,11.12109 15.45728,12.50411 z m -44.22408,-48.56839 c 0.5288,-2.31859 2.80671,5.01956 0,0 z m 62.61823,55.37773 c 3.40061,-1.52132 -4.88124,-1.91996 0,0 z m 8.33067,3.04265 c -0.86236,-4.19788 -3.80737,2.44062 0,0 z m 10.43773,4.35244 c 4.88125,-4.71854 -7.64728,-2.9857 0,0 z m 17.88163,9.96588 c 3.0101,-4.4582 -9.65673,-1.6759 0,0 z m -34.33143,-23.93438 c 7.70424,-4.987 -9.96587,-0.0814 0,0 z m 7.82627,3.905 c -0.21966,-2.62774 -2.78231,1.17963 0,0 z m 39.1069,24.40623 c 6.28868,3.97008 36.72324,8.70488 17.67011,1.62708 -3.19722,0.6671 -35.33208,-9.0954 -17.67011,-1.62708 z m -62.07316,-48.35687 c -0.61016,-2.63587 -9.76249,-2.92875 0,0 z m 18.19891,10.6167 c 4.74294,-3.31111 -9.7625,-2.55451 0,0 z m 15.31897,9.38827 c 6.8012,-2.56266 -11.02347,-2.5708 0,0 z m -40.93737,-28.06716 c 7.37881,5.66224 29.75932,0.81354 11.38957,-3.3762 -8.39575,-4.47447 -27.33498,-7.54152 -14.42409,2.70095 l 3.12401,0.67525 z m 51.31002,31.32132 c 3.07518,-5.23107 -12.89462,-2.99384 0,0 z m -15.58744,-12.39023 c 18.03619,5.09277 -15.17254,-11.41398 -4.45007,-1.88741 l 2.37554,1.082 2.07453,0.81355 z m 31.25623,18.06061 c 17.08436,0.1627 -15.43287,-2.44062 0,0 z m -73.54409,-46.87622 c -0.6671,-3.25416 -4.21414,0.26034 0,0 z m 102.4492,63.08195 c 0.45559,-5.7436 -5.57275,4.27923 0,0 z m -73.21868,-45.23287 c -1.04132,-3.02637 -5.33683,-0.13016 0,0 z m -27.53835,-19.8504 c 9.80316,-0.59389 -13.42344,-4.31177 0,0 z m -32.54164,-21.08697 c -1.22031,-4.71854 -10.57603,-8.46083 0,0 z m 85.64145,54.34453 c -1.78979,-2.05013 -0.84609,0.44744 0,0 z m 53.30319,32.70435 c -0.1627,-3.13215 -2.90434,1.17962 0,0 z m -58.00546,-37.5856 c 0.95998,-4.03516 -8.3632,-1.22031 0,0 z m -39.7008,-25.17095 c 7.29746,-0.781 -11.69871,-4.93006 0,0 z m 67.17408,41.73465 c 11.3733,-4.50702 -11.08856,-2.19657 0,0 z m -34.93345,-23.71472 c 13.01666,1.68403 -15.59557,-8.92455 -2.87993,-0.95184 z m 45.54202,28.00207 c 12.24378,-7.3056 8.20048,17.13317 20.76156,2.0664 12.3821,-9.04659 -10.69806,11.18618 4.55582,1.6108 11.04789,-7.38694 27.35125,3.49823 37.65068,7.04527 7.32187,-0.35796 14.6112,6.40257 22.20967,2.27791 14.61933,-3.93753 -28.59596,-5.84122 -17.27149,-12.8214 -13.3746,3.905 -23.26726,-4.63718 -29.84067,-13.2119 -15.00983,-3.46569 -32.35452,-11.14551 -39.84722,-24.4225 -3.05892,-4.97888 4.40939,0.70778 -2.63588,-7.4439 -8.94895,-8.03778 -13.55359,-17.08436 -19.62261,-26.94447 -7.32186,-3.86432 -8.10287,-15.2539 -8.83505,-0.37423 0.057,-9.38826 -8.7537,-15.70133 -10.90145,-13.08174 -0.0407,-8.94894 9.43708,-4.50702 2.80671,-11.19431 -1.42369,-9.372 -6.12595,-19.13449 -7.53337,-29.71052 -2.19657,-5.09277 -0.30915,-16.02675 -7.48458,-4.47448 -2.60334,12.20312 -0.86236,-14.98541 3.20535,-6.0202 5.33683,-9.14419 -1.91996,-8.13541 -2.21283,-6.8012 3.47381,-7.71237 2.19656,-18.67076 -0.91117,-14.48103 1.85487,-8.18421 2.92874,-30.101 -2.76604,-26.22041 3.45755,-8.55845 6.549,-39.15573 -8.46083,-27.49769 -6.07715,0.0814 -16.59623,2.19656 -21.5751,4.67787 15.59558,8.59911 -1.57013,3.10772 -7.93202,1.74096 -0.81354,7.95644 -7.11849,4.52329 -14.96915,4.59651 12.56107,1.62709 -6.11783,12.85395 -13.30954,8.46083 -9.35571,4.47447 8.13541,15.61998 0.18712,19.08566 0.97626,5.19041 -14.318318,-1.87114 -13.130547,10.13673 -9.079117,-3.82365 -1.244718,14.23696 3.302977,8.13541 15.441,4.18159 10.8689,13.70816 11.2594,22.76287 -2.44061,5.27175 -12.42277,-12.39836 -2.19656,-11.57668 -8.13541,-13.01666 -8.91641,-4.73482 -15.619981,1.35048 -1.627082,0.43931 17.084361,8.65607 5.385641,12.71564 10.29129,1.59453 10.5923,10.60043 12.69124,16.29521 6.1829,6.44325 4.91378,-7.11847 12.31701,0.63457 -4.68601,-6.9151 -24.813,-19.52499 -8.60727,-15.42473 -0.0814,-6.93951 -2.92874,-12.54481 2.03385,-12.40651 4.92192,-8.90014 -5.15785,21.96561 5.93885,10.64112 3.06705,-1.34235 3.82364,-8.90827 9.35573,0.71592 8.00524,7.89134 2.8962,13.58613 -8.40388,6.37002 2.01757,6.86628 15.11558,9.3069 12.65056,20.03751 2.60333,9.43707 6.26426,5.95512 9.43707,5.41818 2.49757,9.16047 3.905,2.42435 4.02703,-1.95249 11.42212,2.44061 8.74556,9.19301 12.32514,13.83019 7.87507,3.54703 -11.26754,-24.08081 2.24538,-8.29812 14.22069,12.85395 5.33683,18.19891 -7.42763,16.14065 8.07846,-0.65083 10.67366,10.91772 20.77783,10.51095 9.20928,4.39312 15.45728,21.21715 -0.43117,14.21256 -5.50768,-4.88125 -25.00824,-11.0967 -9.07912,-1.65148 14.69255,6.81746 26.38313,10.88517 40.56315,19.52497 10.14484,7.32187 14.52984,15.45728 18.36974,17.18199 -8.54217,4.0677 -25.70789,-3.25417 -12.95156,-5.4914 -7.95643,-1.4481 -16.90538,-5.47514 -9.29064,4.43379 6.48393,5.41818 22.95812,4.84057 25.91941,5.45073 -2.5057,5.5158 -6.80119,5.95511 0.0976,6.37815 -7.6961,4.10839 2.47317,4.74295 3.25416,7.07781 z m -15.74202,-44.46815 c -4.686,-4.90564 -5.89816,-14.07425 -0.83795,-6.10154 2.60334,1.0576 8.32253,15.00168 0.83795,6.10154 z m 51.28562,32.57418 c 2.92875,-0.19524 0.0814,2.22097 0,0 z m -58.68071,-44.58204 c -0.18711,-7.32187 1.68403,5.7192 0,0 z m -5.09276,-6.85001 c -5.89818,-11.38957 7.42763,3.22162 0,0 z m -61.77216,-42.62954 c 3.46568,-0.92743 1.62709,5.92258 0,0 z m 49.17041,26.64346 c 2.11521,-7.98896 2.49757,6.69544 0,0 z m -34.73819,-24.16216 c -2.44062,-4.40939 5.12531,4.0677 0,0 z m 29.79999,9.55097 c -5.58088,-12.50412 3.96195,-6.83374 1.24473,2.05012 z m -51.3995,-34.27447 c -2.49757,-4.10839 -6.62224,-16.14065 -5.28801,-19.81785 1.19589,5.98764 12.72378,25.76483 5.64596,8.19235 -7.80999,-14.64374 9.35572,4.77548 11.11298,8.46082 0.81354,3.66093 -4.82431,-1.00066 -1.00066,7.56593 -6.98018,-9.76249 -4.11651,5.38564 -10.47027,-4.39312 z m -15.88032,-10.95027 c 0.65083,-9.54283 3.62839,6.54088 0,0 z m 7.14289,2.46503 c 3.41687,-7.19983 5.69478,10.0391 0,0 z m -17.19013,-13.29325 c -5.91443,-5.8819 -10.19366,-11.38957 0.28475,-3.66094 4.02702,0.16271 -8.96522,-12.31702 0.97625,-3.96194 10.44586,1.90368 5.15784,17.13317 -1.25286,7.61474 z m 8.94896,-0.24407 c 3.43314,-3.41687 1.82233,3.35179 0,0 z m 5.56462,1.77351 c -5.20667,-9.76247 6.32121,4.09212 0,0 z m -11.04789,-10.55162 c -17.19012,-15.31083 21.59952,7.99712 2.80672,2.83113 z m 49.2599,28.61223 c -7.44389,-4.4582 -1.9769,-31.40267 0.56949,-12.97597 7.32187,-2.34299 -0.40678,9.51843 4.987,9.40454 -0.84609,7.48457 -3.25417,10.16926 -5.54835,3.57957 z m 18.08502,10.73874 c 0.81354,-8.1354 1.52946,5.5565 0,0 z m -3.25417,-3.13212 c 0.81355,-3.46569 0.0814,4.08397 0,0 z m -61.01556,-41.2872 c -11.04789,-15.23763 32.10232,15.4166 7.0778,3.86432 -2.60333,-0.69152 -5.69479,-0.93557 -7.0778,-3.86432 z m 35.08802,18.59753 c -1.0576,-12.82952 2.33486,2.11522 0,0 z m 26.63533,17.08437 c 2.05826,-7.3056 0.16271,4.83243 0,0 z m -60.02306,-41.50685 c 6.56528,-1.40743 27.19669,11.51973 8.24931,3.69347 -2.1152,-2.33486 -6.50832,-1.26912 -8.24931,-3.69347 z m 56.37839,28.09157 c 0.69964,-13.12242 3.92127,-7.8344 0.0325,1.88741 z m -51.48087,-32.66367 c 2.68469,-3.92127 -7.11035,-17.7352 1.40742,-4.88125 3.67721,2.92874 10.57605,4.88125 4.49889,6.12596 9.76249,8.54218 -2.44063,2.31046 -5.89817,-1.17149 z m 48.69856,28.47392 c 1.84674,-14.95288 1.62708,8.7537 0,0 z M 120.24816,170.7415 c 2.05012,-0.87863 1.08201,2.72535 0,0 z m 12.70751,7.56592 c 3.27044,-6.86629 6.0202,7.64728 0,0 z m 35.82834,19.93175 c -0.0325,-2.62774 0.67524,3.82364 0,0 z m -2.07453,-4.58837 c -4.88125,-12.26819 4.63718,6.49206 0,0 z m -3.05077,-8.13541 c -0.82982,-5.06836 2.84739,6.37002 0,0 z m 4.88124,-8.07845 c -3.41688,-6.02022 4.31177,-26.49704 5.17411,-13.78953 -3.60398,9.9008 -1.04132,15.43286 1.46438,2.15589 4.63718,-10.44587 -1.00066,20.63139 -6.63849,11.63364 z m 5.10903,-30.46712 c 1.48878,-1.83046 0.32541,2.19657 0,0 z m -8.54217,168.05315 c -2.01758,-1.7654 0.26033,1.11453 0,0 z m 17.57247,8.88385 c 9.7625,2.44062 9.72995,-1.51319 0.81355,-2.71722 -4.74295,-4.41753 -19.74464,-9.11166 -6.32121,-0.54508 0.81354,2.25351 3.69347,2.19657 5.42632,3.25416 z m -34.68938,-23.0476 c 5.36938,4.01889 20.27344,11.37329 7.67169,1.62707 4.25482,-4.94633 -8.13541,-7.56593 -4.02703,-10.88517 -10.45399,-6.40257 -8.2493,-5.82495 -0.9193,-5.69479 -12.56107,-5.69479 1.81421,-5.19039 1.13896,-8.07846 -4.84056,-0.95185 -24.06454,-8.54217 -12.75632,0.61829 -11.49533,-5.85749 -2.74163,2.18029 -6.21545,1.34234 -11.75567,-3.20534 10.46213,8.94896 -1.87115,5.93885 6.73613,5.33683 18.14196,13.68376 2.8474,5.64597 -2.00945,2.90435 10.95026,7.29747 14.1312,9.50216 z m 18.36976,10.55976 c 22.33983,7.19169 -10.9584,-8.80252 0,0 z m 94.06158,56.98039 c 0.29289,-4.4338 -3.05077,3.78297 0,0 z m 9.7625,4.0677 c 5.15785,-4.987 0.21152,7.95644 8.54218,-1.22031 0.0814,-6.57341 -0.24407,-10.454 -9.56724,-2.46502 -2.57079,1.43183 -3.71789,7.48458 1.02506,3.69347 z M 116.86383,276.274 c -1.5864,-6.22358 -11.0967,-6.1829 0,0 z m 10.31569,6.75239 c -3.82364,-6.3456 -13.66748,-5.75173 0,0 z m 58.73766,35.42158 c 5.73546,5.09276 26.33432,3.74228 6.96391,0.63456 -2.86367,-4.23041 -18.20705,-3.22163 -6.96391,-0.63456 z m 80.72766,49.87005 c 8.82692,-7.32187 -8.54218,3.30297 0,0 z m 18.35348,12.60988 c 0.0569,-2.37554 -3.80737,1.04134 0,0 z m 0.0325,-3.25416 c 9.76249,-10.34824 -9.46149,0.61015 0,0 z M 91.465082,255.01619 c -8.330658,-11.8777 -5.17412,-17.22266 -13.211902,-26.84686 -1.529458,-7.42761 -13.781383,-24.25979 -6.34562,-6.50832 6.817472,10.43773 8.835054,26.58652 19.549387,33.35518 z M 281.96381,374.31381 c 17.8979,-11.61736 -7.37882,-5.06022 0,0 z m 13.72443,5.36938 c 9.00589,-7.72864 -5.69478,-1.61081 0,0 z M 113.80491,263.04584 c 2.57079,-3.82365 -6.65476,-0.48813 0,0 z m 179.01967,112.87879 c 8.72116,-5.69479 -2.00945,-4.75922 -1.57827,0.51252 z M 174.51947,301.44496 c -0.301,-3.80738 -4.61278,0.32542 0,0 z m 7.30559,4.20601 c -2.32672,-4.70226 -3.57957,0.81353 0,0 z m 124.98429,74.16238 c 11.16991,-8.1354 -6.75239,-1.62707 -2.33486,1.52946 z m -4.27923,-2.06639 c 9.11166,-7.62288 -9.59977,3.3762 0,0 z m 21.85985,14.54611 c 6.10154,-4.08398 -7.42764,-1.31794 0,0 z M 119.40207,260.36114 c 8.18423,1.83047 32.72061,20.15955 18.24773,1.26913 -7.32187,-2.19656 -2.96942,-20.31411 -10.52722,-17.1169 5.07649,8.48523 4.17346,12.08108 -6.48393,6.75239 -13.38274,-6.54087 -7.52525,3.22975 -4.8975,5.93885 -3.57959,0.81354 4.71852,3.09145 3.66092,3.25416 z M 82.101226,230.91097 c 1.464374,-6.06902 -13.504777,-33.35517 -7.077804,-13.66749 2.318591,4.12466 2.074529,11.93464 7.077804,13.66749 z m 68.467614,42.30413 c -4.23042,-3.52264 -0.2034,-0.50439 0,0 z m 10.38077,2.41621 c 0,-6.50833 -11.38957,-2.60333 0,0 z m 89.97761,56.72007 c -1.62708,-4.39313 -6.78492,-0.0976 0,0 z m 4.31178,3.15654 c -0.65084,-2.45689 -2.49758,0.48811 0,0 z m 35.65749,22.39677 c 3.41687,-2.44062 -4.27922,-0.32541 0,0 z M 100.73131,235.67018 c 9.81131,-3.79923 -10.510946,-2.70908 0,0 z m 142.36965,89.63593 c -0.1139,-6.34561 -6.26426,1.58641 0,0 z M 96.932077,226.62361 c 6.296803,-2.1152 -5.833088,-1.39929 0,0 z m 18.288393,8.94894 c -0.10576,-2.08266 -1.92808,0.79727 0,0 z m 223.0241,136.73182 c 8.10287,-1.64335 26.57838,4.12465 29.55594,-2.14775 -9.76249,-0.24406 -34.03855,-6.94764 -35.18564,1.58641 l 2.15587,0.34168 3.47383,0.21153 z M 121.02916,236.94744 c 0.14643,-6.50832 -5.01955,-0.24405 0,0 z M 73.030247,203.59227 c -2.18029,-12.26006 -8.298117,-1.85488 0,0 z m 11.389572,2.87993 c 0.146437,-3.93754 -10.576031,-3.54704 0,0 z m 6.549003,3.22162 c -1.895549,-1.62708 -1.464373,1.92809 0,0 z m 41.246518,26.44008 c 1.9525,-1.78978 -4.5965,-1.31793 0,0 z M 86.535025,202.43703 c -1.114552,-9.25809 -13.293258,-1.38301 0,0 z M 62.942341,187.17502 c -0.325417,-4.27109 -2.294186,1.6108 0,0 z m 3.41687,-2.63588 c -0.569478,-5.06835 -3.0101,0.63457 0,0 z m 19.321597,11.52787 c 8.176084,-3.20534 -14.887798,-6.63849 -1.66776,-0.60201 z M 344.3868,355.82203 c 5.23106,-4.88124 -6.6385,-1.48064 0,0 z m 31.23996,16.27082 c 2.09894,-6.18291 -5.28801,0.81354 0,0 z M 87.633305,185.9547 c 0.862354,-5.99579 -6.48392,1.19591 0,0 z M 60.135624,167.528 c -1.464373,-8.46082 -1.269123,-23.32421 12.853946,-18.30467 -18.849742,3.74229 13.05733,23.42999 8.948949,7.89136 7.932024,0.39049 15.514224,-4.68601 11.348894,3.01008 15.619977,-1.62707 26.456347,-15.27016 41.547537,-13.36646 11.75567,-1.562 24.6096,-2.74164 37.27644,-7.48458 10.41332,-0.74847 20.44428,-11.95905 14.64374,-18.61382 -14.20443,-1.20404 -29.07595,0.56948 -44.76916,3.70162 -17.3935,3.61211 -33.19247,10.4784 -50.748679,13.42341 -17.116899,2.30233 3.433142,6.32935 -1.464373,7.32187 -8.924544,3.09147 10.576032,5.18226 -1.155229,8.46083 -7.289326,-1.38302 -14.887797,-3.88873 -11.763801,-11.5767 -16.384711,2.13963 -30.79252,8.93269 -17.84095,25.61028 l 0.959978,0.008 z M 99.63303,147.41727 c 3.82364,-14.15562 20.58259,11.64991 6.28867,1.88742 -1.62708,-1.2854 -4.51515,-2.3186 -6.28867,-1.88742 z m 0.74846,-6.86629 c 5.53208,-4.12465 2.94502,2.3186 0,0 z m 7.03713,0.1139 c 0.50439,-6.50833 16.12438,3.44941 2.57079,2.34299 z m 9.63232,-3.87246 c 3.52263,-4.1165 1.02506,3.64468 0,0 z m 2.46503,-1.65149 c 5.85749,-7.03712 33.16806,-4.49887 13.17936,-0.6915 -5.36937,-4.03516 -9.46148,2.37554 -13.17936,0.6915 z m 35.63309,-5.49139 c -0.87862,-19.23212 17.71892,6.83374 0,0 z m 10.11231,-0.057 c 3.70162,-9.76249 14.35901,-3.88872 1.62709,-1.9525 0.26846,1.04134 -0.37423,5.01141 -1.62709,1.9525 z m -81.62255,51.39142 c 11.047883,-6.76866 -11.714989,-5.87376 0,0 z m 8.176086,2.26165 c 3.872453,-4.11652 -8.428284,-1.66776 0,0 z M 67.986294,166.23449 c 6.313076,-4.85685 -7.484577,-1.84674 0,0 z M 394.21617,370.31933 c 0.18712,-5.62971 -4.82429,2.44063 0,0 z m -33.15178,-22.61644 c 0.9437,-6.47578 -4.26296,0.56948 0,0 z m 42.26344,24.81299 c 8.82692,0.0325 26.74109,-2.74976 7.54153,-2.74162 -3.0101,0.46372 -17.55622,0.37423 -7.54153,2.74162 z M 99.17745,179.26739 c 7.14289,-0.48812 11.16991,-7.87507 -1.38302,-7.45203 -19.459897,-2.00945 17.08436,6.67104 -2.49757,4.18161 -2.635873,1.7491 3.72602,3.75855 3.88059,3.27042 z m 6.28867,3.18908 c -0.74846,-4.58022 -2.21283,2.44063 0,0 z m 7.46831,-19.89921 c 3.09144,-3.84805 -4.2955,-1.02506 0,0 z M 89.179033,122.85648 c 12.756317,-4.32805 30.101007,-9.19302 36.202567,2.1396 -6.12596,-7.37068 -2.47317,-14.62747 3.31111,-3.84805 8.18421,10.90146 12.20311,-4.88124 6.95578,-8.62353 6.06902,7.53339 12.9597,11.0967 4.0677,0.48813 9.7625,-11.63363 -19.36228,1.52132 -25.96822,1.38301 -3.25416,1.4237 -32.7857,7.54967 -24.568937,8.46084 z m 7.484575,-14.30206 c 7.273052,-5.48327 25.219762,3.27043 13.667482,-5.45073 -1.12269,-0.99252 -25.122137,6.62223 -13.667482,5.45073 z m 26.521432,1.09828 c 8.5015,0.21152 -3.66093,-11.43838 6.46765,-6.1585 -1.65962,-5.43445 -11.79634,-6.45138 -16.75894,-8.62353 -2.80672,4.88124 5.69478,14.84712 10.29943,14.78203 z M 101.3252,85.588166 c 2.94501,-4.067705 -5.165987,2.033852 0,0 z m 10.83636,2.60333 c 13.7163,-1.814196 -3.49822,-5.898171 -2.76604,-0.146437 z M 91.9288,72.368127 c -9.656729,-12.609884 18.16637,2.115206 8.34693,-11.088562 -8.25744,-6.57341 -16.270818,7.321868 -8.34693,11.088562 z m 123.90227,66.734743 c 4.42566,-7.84253 -18.28026,-10.57602 -2.97756,-2.76603 1.40743,0.46372 1.09015,3.31924 2.97756,2.76603 z m 227.84839,2.07454 c -1.52131,6.00394 -2.4569,16.06743 -2.81485,30.10101 0,2.76604 -1.25285,4.16534 -3.75856,4.16534 -2.5057,0 -4.25481,-1.22032 -5.2392,-3.6284 -2.68469,-6.53273 -5.22294,-11.08856 -7.64729,-13.69188 -2.86367,-3.03452 -6.67103,-4.88125 -11.40584,-5.49954 -5.1009,-0.81354 -17.80027,-1.22032 -38.10626,-1.22032 -4.65344,0 -7.69609,0.48813 -9.11165,1.48065 -0.81354,0.62643 -1.34234,1.96876 -1.34234,4.02702 v 60.78777 c 0,2.05826 1.30166,3.03452 3.88059,2.95317 l 34.6243,-1.61083 c 2.95316,-0.36609 4.94632,-1.31793 5.97138,-2.88807 1.02507,-1.57013 2.03386,-5.69477 3.01011,-12.14616 0.62643,-3.57958 2.72536,-4.88124 6.30494,-4.06771 3.04264,0.62643 4.34431,2.00945 3.905,4.06771 -2.50571,12.17057 -3.31925,28.00208 -2.42435,47.51079 0.0976,2.3186 -1.38303,3.57958 -4.42567,3.75856 -2.50571,0.26847 -4.0677,-1.07387 -4.69413,-4.02703 -2.31859,-11.17805 -6.64663,-17.08436 -13.01665,-17.9223 -6.37002,-0.83796 -16.57996,-1.13896 -30.80066,-1.13896 -1.61082,0 -2.40808,0.56947 -2.40808,1.74098 v 60.38913 c 0,4.47448 1.65149,7.51713 4.88125,9.11165 2.60333,1.34235 8.19235,2.55453 16.7752,3.6284 4.39312,0.44745 6.30494,2.37555 5.6948,5.69479 -0.54508,2.95315 -4.47448,4.11652 -11.81262,3.49822 -21.20087,-1.62708 -38.692,-1.61081 -52.47339,0.26848 -3.84804,0.52879 -5.69477,-1.03321 -5.69477,-4.69414 0,-2.32672 1.91994,-3.66093 5.69477,-4.02702 8.76997,-0.97625 13.14683,-8.68049 13.14683,-23.08016 V 169.84659 c 0,-5.89816 -1.05761,-10.43773 -3.14841,-13.61867 -2.09079,-3.18094 -6.0202,-6.06901 -11.73939,-8.65607 -3.57959,-1.61082 -4.92192,-3.79924 -4.02703,-6.57343 0.44744,-1.69215 1.16336,-2.63586 2.13961,-2.81484 0.81355,-0.26846 3.27044,-0.0814 7.11035,0.53694 5.63783,0.81354 18.9311,1.34234 39.8635,1.34234 l 64.02566,-1.6108 c 5.98767,-0.36611 8.98964,0.13015 8.98964,1.46436 0,0.36609 -0.0489,0.71592 -0.13831,1.07388 z m 87.03259,170.35546 c 0,3.57958 -2.00944,5.14157 -6.03646,4.69412 -12.34142,-1.16335 -27.63598,-0.97624 -45.88371,0.5288 -3.66093,0.3661 -5.92258,0.26848 -6.78493,-0.26032 -0.86235,-0.5288 -1.26912,-2.00944 -1.26912,-4.4338 0,-2.13962 2.44063,-3.95381 7.3056,-5.43445 4.86497,-1.48065 7.32187,-5.8819 7.32187,-13.21191 V 171.96993 c 0,-7.32187 -1.0576,-12.5692 -3.14841,-15.97794 -2.0908,-3.40873 -5.80055,-6.03648 -11.06416,-7.90762 -2.76603,-0.97624 -4.16532,-2.37554 -4.16532,-4.16533 0,-2.68468 2.00944,-4.69413 6.03647,-6.03647 6.08528,-1.96877 12.39835,-5.00328 18.9311,-9.12793 5.36936,-3.22162 8.76997,-4.82429 10.19366,-4.82429 3.31111,0 4.88125,2.27791 4.88125,6.83373 a 1640.017,1640.017 0 0 0 -0.54508,13.42343 l -0.26032,26.17161 0.5288,119.83458 c 0,5.45072 1.34234,9.42079 4.02701,11.87768 2.68469,2.4569 7.29747,4.09212 13.83021,4.88125 4.02702,0.44745 6.03646,1.96877 6.03646,4.55584 z m 121.38031,-7.91576 c 0,1.87114 -3.41687,4.71854 -10.25061,8.51779 -6.83375,3.79923 -12.32515,5.69478 -16.43354,5.69478 -3.49822,0 -6.5734,-1.69218 -9.2581,-5.10091 -2.68467,-3.40874 -4.57209,-5.09276 -5.63783,-5.09276 -0.81353,0 -5.04395,1.8386 -12.74819,5.49954 -7.70422,3.66093 -15.43286,5.50766 -23.21032,5.50766 -7.32186,0 -13.46409,-2.15588 -18.38602,-6.50831 -5.36936,-4.74296 -8.1354,-11.18619 -8.1354,-19.32975 0,-15.48168 17.71891,-26.57024 53.14861,-33.35516 6.07716,-1.16338 9.16861,-3.6284 9.24997,-7.37883 l 0.26847,-8.59098 c 0.53694,-14.66815 -5.93885,-22.00629 -19.4599,-22.00629 -3.84805,0 -7.48458,3.44128 -10.94212,10.33198 -3.45756,6.89069 -8.37948,10.60043 -14.82272,11.1455 -7.32187,0.70778 -11.00721,-2.37553 -11.00721,-9.27436 0,-4.29549 5.45073,-9.29878 16.37658,-15.03423 11.45466,-5.98767 22.45373,-8.98963 33.0135,-8.98963 18.15821,0 27.14785,8.63981 26.96887,25.90313 l -0.54508,55.28011 c -0.0814,5.81681 2.37554,8.72115 7.37882,8.72115 0.97625,0 2.8718,-0.21965 5.63784,-0.6671 l 4.84057,-0.6671 c 2.58705,0 3.88873,1.74911 3.88873,5.2392 z m -41.32788,-30.58913 c 0.0814,-2.23723 -0.43118,-3.71788 -1.62708,-4.42567 -1.19591,-0.70777 -2.87993,-0.85421 -5.28801,-0.40676 -21.55884,3.84804 -32.3464,10.87704 -32.3464,21.15205 0,10.27502 5.58903,15.43288 16.77522,15.43288 4.47448,0 9.08726,-0.84608 13.83019,-2.54639 5.55649,-1.9769 8.32253,-4.3443 8.32253,-7.11848 l 0.26847,-22.00628 z m 141.08425,15.23762 c 0,9.48588 -3.66093,17.02741 -10.94211,22.61644 -7.2812,5.58903 -17.23894,8.29812 -29.85696,8.29812 a 120.89217,120.89217 0 0 1 -25.2279,-2.68469 c -7.32187,-1.61081 -11.45465,-3.09145 -12.60988,-4.42567 -0.71591,-1.26099 -1.07388,-7.37881 -1.07388,-18.38602 0,-4.74294 1.07388,-7.19984 3.22163,-7.37881 2.14774,-0.26847 4.0677,0.81354 5.49953,3.48195 6.71171,11.71498 17.53994,17.57248 32.47654,17.57248 12.60989,0 18.91484,-4.39312 18.91484,-13.1631 0,-3.8399 -1.42371,-7.06152 -4.29551,-9.65672 -3.13212,-2.95316 -9.20928,-6.40256 -18.24771,-10.33196 -13.06547,-5.81682 -21.78662,-10.90145 -26.17161,-15.29457 -4.74294,-4.65346 -7.11035,-10.90145 -7.11035,-18.71144 0,-9.66487 3.70975,-17.08436 11.14551,-22.53508 6.89069,-5.19039 16.10811,-7.78559 27.63598,-7.78559 a 103.97052,103.97052 0 0 1 19.86667,1.74097 c 6.44324,1.16337 9.79504,2.58706 10.06351,4.29551 0.70778,5.00327 2.19655,12.25191 4.42566,21.74594 0.26846,1.15522 -0.99252,2.09894 -3.75856,2.81485 -2.95316,0.62643 -4.92192,0.13016 -5.90631,-1.46437 -7.06154,-11.55228 -16.01048,-17.31215 -26.84685,-17.31215 -12.25193,0 -18.38602,3.93754 -18.38602,11.81261 0,4.39311 1.65962,7.87508 4.88124,10.46214 2.95316,2.23723 9.88452,5.73546 20.80224,10.4784 11.45465,4.92192 19.2321,9.35572 23.34863,13.27699 5.36936,5.10089 8.1354,11.95904 8.1354,20.53377 z m 157.86761,23.47878 c 0,3.13214 -2.11521,4.88125 -6.31308,4.88125 l -24.55266,1.34235 c -5.01142,0.97625 -8.59099,0.36609 -10.73874,-1.87115 -14.13935,-15.21321 -26.13094,-31.1342 -35.95851,-47.77925 -0.81354,-1.4237 -1.83046,-2.14775 -3.09145,-2.14775 -1.52133,0 -4.0677,1.34234 -7.90762,4.02702 -4.21414,2.3186 -6.31307,5.63784 -6.31307,9.9252 l 0.26846,13.1631 c 0.17898,5.71919 1.60268,9.47775 4.28736,11.26754 1.87114,1.26099 6.22359,2.23724 13.01665,2.95315 4.20602,0.53694 6.31307,2.1152 6.31307,4.69413 0,2.05826 -0.32541,3.25417 -1.00877,3.82365 -0.68338,0.56947 -2.44062,0.60201 -5.3043,0.32541 -8.94894,-0.81354 -24.06453,-0.35795 -45.3549,1.34234 -5.36936,0.44745 -8.2737,-0.22778 -8.72115,-2.00945 -0.17898,-0.62642 -0.26847,-1.52132 -0.26847,-2.68468 0,-2.76603 2.73349,-4.88124 8.19235,-6.2968 4.92192,-1.261 7.37881,-7.029 7.37881,-17.31216 V 172.09197 c 0,-7.32187 -0.71591,-12.43091 -2.15587,-15.29458 -1.96877,-3.66092 -6.0853,-6.53272 -12.34956,-8.59098 -2.94501,-0.97626 -4.42566,-2.44062 -4.42566,-4.06771 0,-2.60333 2.11521,-4.61278 6.30494,-6.03647 a 85.665851,85.665851 0 0 0 19.19957,-9.27438 c 4.92193,-3.21348 7.9727,-4.83243 9.11165,-4.83243 3.67721,0 5.50768,2.3186 5.50768,6.98019 0,-0.63456 -0.0489,3.79923 -0.1383,13.27698 l -0.13018,26.30992 0.26848,83.99809 c 0,2.32673 0.62642,3.48196 1.87114,3.48196 1.34235,0 3.40061,-1.15523 6.18291,-3.48196 l 27.36752,-22.81168 c 2.15588,-2.23724 3.22162,-4.02704 3.22162,-5.36937 0,-2.40808 -3.62026,-4.11651 -10.86078,-5.09276 -3.13212,-0.3661 -4.61277,-2.11521 -4.43379,-5.23921 0.26846,-3.13214 1.8386,-4.47447 4.69413,-4.02703 6.45138,0.81354 15.83964,1.38302 28.18106,1.48065 l 25.62653,0.13015 c 2.76603,0.0814 4.06771,1.74099 4.06771,4.88125 0,3.03452 -2.19657,4.69414 -6.57342,4.88125 -6.89882,0.26034 -13.38274,1.82233 -19.4599,4.69414 -8.50149,3.83991 -17.58874,10.60044 -27.25361,20.33852 -0.70778,0.53694 -1.07387,1.2203 -1.07387,2.00944 0,1.25286 1.52133,4.25482 4.5721,8.99776 11.17805,17.08436 21.73781,29.83255 31.66301,38.51303 6.34561,5.45072 12.30073,8.18422 17.84094,8.18422 4.11652,0 6.67104,0.28473 7.64729,0.87861 0.97625,0.5939 1.48065,2.11522 1.48065,4.62092 z"
     id="path1"
     style="stroke-width:8.13541" />
</svg>
